<?xml version="1.0" encoding="utf-8"?>
<svg xmlns="http://www.w3.org/2000/svg" xmlns:xlink="http://www.w3.org/1999/xlink" width="672" height="480" viewBox="0 0 2688 1920">
<defs>
  <clipPath id="clip070">
    <rect x="0" y="0" width="2688" height="1920"/>
  </clipPath>
</defs>
<path clip-path="url(#clip070)" d="
M0 1920 L2688 1920 L2688 0 L0 0  Z
  " fill="#ffffff" fill-rule="evenodd" fill-opacity="1"/>
<defs>
  <clipPath id="clip071">
    <rect x="537" y="0" width="1883" height="1883"/>
  </clipPath>
</defs>
<path clip-path="url(#clip070)" d="
M195.821 1800.78 L2640.76 1800.78 L2640.76 47.2441 L195.821 47.2441  Z
  " fill="#ffffff" fill-rule="evenodd" fill-opacity="1"/>
<defs>
  <clipPath id="clip072">
    <rect x="195" y="47" width="2446" height="1755"/>
  </clipPath>
</defs>
<polyline clip-path="url(#clip072)" style="stroke:#000000; stroke-linecap:butt; stroke-linejoin:round; stroke-width:2; stroke-opacity:0.1; fill:none" points="
  265.017,1800.78 265.017,47.2441 
  "/>
<polyline clip-path="url(#clip072)" style="stroke:#000000; stroke-linecap:butt; stroke-linejoin:round; stroke-width:2; stroke-opacity:0.1; fill:none" points="
  841.655,1800.78 841.655,47.2441 
  "/>
<polyline clip-path="url(#clip072)" style="stroke:#000000; stroke-linecap:butt; stroke-linejoin:round; stroke-width:2; stroke-opacity:0.1; fill:none" points="
  1418.29,1800.78 1418.29,47.2441 
  "/>
<polyline clip-path="url(#clip072)" style="stroke:#000000; stroke-linecap:butt; stroke-linejoin:round; stroke-width:2; stroke-opacity:0.1; fill:none" points="
  1994.93,1800.78 1994.93,47.2441 
  "/>
<polyline clip-path="url(#clip072)" style="stroke:#000000; stroke-linecap:butt; stroke-linejoin:round; stroke-width:2; stroke-opacity:0.1; fill:none" points="
  2571.57,1800.78 2571.57,47.2441 
  "/>
<polyline clip-path="url(#clip070)" style="stroke:#000000; stroke-linecap:butt; stroke-linejoin:round; stroke-width:4; stroke-opacity:1; fill:none" points="
  195.821,1800.78 2640.76,1800.78 
  "/>
<polyline clip-path="url(#clip070)" style="stroke:#000000; stroke-linecap:butt; stroke-linejoin:round; stroke-width:4; stroke-opacity:1; fill:none" points="
  265.017,1800.78 265.017,1781.88 
  "/>
<polyline clip-path="url(#clip070)" style="stroke:#000000; stroke-linecap:butt; stroke-linejoin:round; stroke-width:4; stroke-opacity:1; fill:none" points="
  841.655,1800.78 841.655,1781.88 
  "/>
<polyline clip-path="url(#clip070)" style="stroke:#000000; stroke-linecap:butt; stroke-linejoin:round; stroke-width:4; stroke-opacity:1; fill:none" points="
  1418.29,1800.78 1418.29,1781.88 
  "/>
<polyline clip-path="url(#clip070)" style="stroke:#000000; stroke-linecap:butt; stroke-linejoin:round; stroke-width:4; stroke-opacity:1; fill:none" points="
  1994.93,1800.78 1994.93,1781.88 
  "/>
<polyline clip-path="url(#clip070)" style="stroke:#000000; stroke-linecap:butt; stroke-linejoin:round; stroke-width:4; stroke-opacity:1; fill:none" points="
  2571.57,1800.78 2571.57,1781.88 
  "/>
<path clip-path="url(#clip070)" d="M227.32 1834 Q223.709 1834 221.881 1837.57 Q220.075 1841.11 220.075 1848.24 Q220.075 1855.34 221.881 1858.91 Q223.709 1862.45 227.32 1862.45 Q230.955 1862.45 232.76 1858.91 Q234.589 1855.34 234.589 1848.24 Q234.589 1841.11 232.76 1837.57 Q230.955 1834 227.32 1834 M227.32 1830.3 Q233.131 1830.3 236.186 1834.9 Q239.265 1839.49 239.265 1848.24 Q239.265 1856.96 236.186 1861.57 Q233.131 1866.15 227.32 1866.15 Q221.51 1866.15 218.432 1861.57 Q215.376 1856.96 215.376 1848.24 Q215.376 1839.49 218.432 1834.9 Q221.51 1830.3 227.32 1830.3 Z" fill="#000000" fill-rule="evenodd" fill-opacity="1" /><path clip-path="url(#clip070)" d="M247.482 1859.6 L252.367 1859.6 L252.367 1865.48 L247.482 1865.48 L247.482 1859.6 Z" fill="#000000" fill-rule="evenodd" fill-opacity="1" /><path clip-path="url(#clip070)" d="M272.552 1834 Q268.941 1834 267.112 1837.57 Q265.306 1841.11 265.306 1848.24 Q265.306 1855.34 267.112 1858.91 Q268.941 1862.45 272.552 1862.45 Q276.186 1862.45 277.991 1858.91 Q279.82 1855.34 279.82 1848.24 Q279.82 1841.11 277.991 1837.57 Q276.186 1834 272.552 1834 M272.552 1830.3 Q278.362 1830.3 281.417 1834.9 Q284.496 1839.49 284.496 1848.24 Q284.496 1856.96 281.417 1861.57 Q278.362 1866.15 272.552 1866.15 Q266.741 1866.15 263.663 1861.57 Q260.607 1856.96 260.607 1848.24 Q260.607 1839.49 263.663 1834.9 Q266.741 1830.3 272.552 1830.3 Z" fill="#000000" fill-rule="evenodd" fill-opacity="1" /><path clip-path="url(#clip070)" d="M302.713 1834 Q299.102 1834 297.274 1837.57 Q295.468 1841.11 295.468 1848.24 Q295.468 1855.34 297.274 1858.91 Q299.102 1862.45 302.713 1862.45 Q306.348 1862.45 308.153 1858.91 Q309.982 1855.34 309.982 1848.24 Q309.982 1841.11 308.153 1837.57 Q306.348 1834 302.713 1834 M302.713 1830.3 Q308.524 1830.3 311.579 1834.9 Q314.658 1839.49 314.658 1848.24 Q314.658 1856.96 311.579 1861.57 Q308.524 1866.15 302.713 1866.15 Q296.903 1866.15 293.825 1861.57 Q290.769 1856.96 290.769 1848.24 Q290.769 1839.49 293.825 1834.9 Q296.903 1830.3 302.713 1830.3 Z" fill="#000000" fill-rule="evenodd" fill-opacity="1" /><path clip-path="url(#clip070)" d="M804.456 1834 Q800.845 1834 799.016 1837.57 Q797.211 1841.11 797.211 1848.24 Q797.211 1855.34 799.016 1858.91 Q800.845 1862.45 804.456 1862.45 Q808.09 1862.45 809.896 1858.91 Q811.725 1855.34 811.725 1848.24 Q811.725 1841.11 809.896 1837.57 Q808.09 1834 804.456 1834 M804.456 1830.3 Q810.266 1830.3 813.322 1834.9 Q816.401 1839.49 816.401 1848.24 Q816.401 1856.96 813.322 1861.57 Q810.266 1866.15 804.456 1866.15 Q798.646 1866.15 795.567 1861.57 Q792.512 1856.96 792.512 1848.24 Q792.512 1839.49 795.567 1834.9 Q798.646 1830.3 804.456 1830.3 Z" fill="#000000" fill-rule="evenodd" fill-opacity="1" /><path clip-path="url(#clip070)" d="M824.618 1859.6 L829.502 1859.6 L829.502 1865.48 L824.618 1865.48 L824.618 1859.6 Z" fill="#000000" fill-rule="evenodd" fill-opacity="1" /><path clip-path="url(#clip070)" d="M843.715 1861.55 L860.035 1861.55 L860.035 1865.48 L838.09 1865.48 L838.09 1861.55 Q840.752 1858.79 845.336 1854.16 Q849.942 1849.51 851.123 1848.17 Q853.368 1845.65 854.248 1843.91 Q855.15 1842.15 855.15 1840.46 Q855.15 1837.71 853.206 1835.97 Q851.285 1834.23 848.183 1834.23 Q845.984 1834.23 843.53 1835 Q841.1 1835.76 838.322 1837.31 L838.322 1832.59 Q841.146 1831.46 843.6 1830.88 Q846.053 1830.3 848.09 1830.3 Q853.461 1830.3 856.655 1832.98 Q859.849 1835.67 859.849 1840.16 Q859.849 1842.29 859.039 1844.21 Q858.252 1846.11 856.146 1848.7 Q855.567 1849.37 852.465 1852.59 Q849.363 1855.78 843.715 1861.55 Z" fill="#000000" fill-rule="evenodd" fill-opacity="1" /><path clip-path="url(#clip070)" d="M869.896 1830.92 L888.252 1830.92 L888.252 1834.86 L874.178 1834.86 L874.178 1843.33 Q875.197 1842.98 876.215 1842.82 Q877.234 1842.64 878.252 1842.64 Q884.039 1842.64 887.419 1845.81 Q890.798 1848.98 890.798 1854.4 Q890.798 1859.97 887.326 1863.08 Q883.854 1866.15 877.535 1866.15 Q875.359 1866.15 873.09 1865.78 Q870.845 1865.41 868.437 1864.67 L868.437 1859.97 Q870.521 1861.11 872.743 1861.66 Q874.965 1862.22 877.442 1862.22 Q881.447 1862.22 883.785 1860.11 Q886.122 1858.01 886.122 1854.4 Q886.122 1850.78 883.785 1848.68 Q881.447 1846.57 877.442 1846.57 Q875.567 1846.57 873.692 1846.99 Q871.84 1847.4 869.896 1848.28 L869.896 1830.92 Z" fill="#000000" fill-rule="evenodd" fill-opacity="1" /><path clip-path="url(#clip070)" d="M1380.6 1834 Q1376.99 1834 1375.16 1837.57 Q1373.35 1841.11 1373.35 1848.24 Q1373.35 1855.34 1375.16 1858.91 Q1376.99 1862.45 1380.6 1862.45 Q1384.23 1862.45 1386.04 1858.91 Q1387.87 1855.34 1387.87 1848.24 Q1387.87 1841.11 1386.04 1837.57 Q1384.23 1834 1380.6 1834 M1380.6 1830.3 Q1386.41 1830.3 1389.46 1834.9 Q1392.54 1839.49 1392.54 1848.24 Q1392.54 1856.96 1389.46 1861.57 Q1386.41 1866.15 1380.6 1866.15 Q1374.79 1866.15 1371.71 1861.57 Q1368.65 1856.96 1368.65 1848.24 Q1368.65 1839.49 1371.71 1834.9 Q1374.79 1830.3 1380.6 1830.3 Z" fill="#000000" fill-rule="evenodd" fill-opacity="1" /><path clip-path="url(#clip070)" d="M1400.76 1859.6 L1405.64 1859.6 L1405.64 1865.48 L1400.76 1865.48 L1400.76 1859.6 Z" fill="#000000" fill-rule="evenodd" fill-opacity="1" /><path clip-path="url(#clip070)" d="M1415.87 1830.92 L1434.23 1830.92 L1434.23 1834.86 L1420.16 1834.86 L1420.16 1843.33 Q1421.18 1842.98 1422.19 1842.82 Q1423.21 1842.64 1424.23 1842.64 Q1430.02 1842.64 1433.4 1845.81 Q1436.78 1848.98 1436.78 1854.4 Q1436.78 1859.97 1433.3 1863.08 Q1429.83 1866.15 1423.51 1866.15 Q1421.34 1866.15 1419.07 1865.78 Q1416.82 1865.41 1414.42 1864.67 L1414.42 1859.97 Q1416.5 1861.11 1418.72 1861.66 Q1420.94 1862.22 1423.42 1862.22 Q1427.43 1862.22 1429.76 1860.11 Q1432.1 1858.01 1432.1 1854.4 Q1432.1 1850.78 1429.76 1848.68 Q1427.43 1846.57 1423.42 1846.57 Q1421.55 1846.57 1419.67 1846.99 Q1417.82 1847.4 1415.87 1848.28 L1415.87 1830.92 Z" fill="#000000" fill-rule="evenodd" fill-opacity="1" /><path clip-path="url(#clip070)" d="M1455.99 1834 Q1452.38 1834 1450.55 1837.57 Q1448.74 1841.11 1448.74 1848.24 Q1448.74 1855.34 1450.55 1858.91 Q1452.38 1862.45 1455.99 1862.45 Q1459.62 1862.45 1461.43 1858.91 Q1463.26 1855.34 1463.26 1848.24 Q1463.26 1841.11 1461.43 1837.57 Q1459.62 1834 1455.99 1834 M1455.99 1830.3 Q1461.8 1830.3 1464.86 1834.9 Q1467.93 1839.49 1467.93 1848.24 Q1467.93 1856.96 1464.86 1861.57 Q1461.8 1866.15 1455.99 1866.15 Q1450.18 1866.15 1447.1 1861.57 Q1444.05 1856.96 1444.05 1848.24 Q1444.05 1839.49 1447.1 1834.9 Q1450.18 1830.3 1455.99 1830.3 Z" fill="#000000" fill-rule="evenodd" fill-opacity="1" /><path clip-path="url(#clip070)" d="M1957.73 1834 Q1954.12 1834 1952.29 1837.57 Q1950.49 1841.11 1950.49 1848.24 Q1950.49 1855.34 1952.29 1858.91 Q1954.12 1862.45 1957.73 1862.45 Q1961.37 1862.45 1963.17 1858.91 Q1965 1855.34 1965 1848.24 Q1965 1841.11 1963.17 1837.57 Q1961.37 1834 1957.73 1834 M1957.73 1830.3 Q1963.54 1830.3 1966.6 1834.9 Q1969.68 1839.49 1969.68 1848.24 Q1969.68 1856.96 1966.6 1861.57 Q1963.54 1866.15 1957.73 1866.15 Q1951.92 1866.15 1948.84 1861.57 Q1945.79 1856.96 1945.79 1848.24 Q1945.79 1839.49 1948.84 1834.9 Q1951.92 1830.3 1957.73 1830.3 Z" fill="#000000" fill-rule="evenodd" fill-opacity="1" /><path clip-path="url(#clip070)" d="M1977.89 1859.6 L1982.78 1859.6 L1982.78 1865.48 L1977.89 1865.48 L1977.89 1859.6 Z" fill="#000000" fill-rule="evenodd" fill-opacity="1" /><path clip-path="url(#clip070)" d="M1991.78 1830.92 L2014.01 1830.92 L2014.01 1832.91 L2001.46 1865.48 L1996.58 1865.48 L2008.38 1834.86 L1991.78 1834.86 L1991.78 1830.92 Z" fill="#000000" fill-rule="evenodd" fill-opacity="1" /><path clip-path="url(#clip070)" d="M2023.17 1830.92 L2041.53 1830.92 L2041.53 1834.86 L2027.45 1834.86 L2027.45 1843.33 Q2028.47 1842.98 2029.49 1842.82 Q2030.51 1842.64 2031.53 1842.64 Q2037.32 1842.64 2040.7 1845.81 Q2044.07 1848.98 2044.07 1854.4 Q2044.07 1859.97 2040.6 1863.08 Q2037.13 1866.15 2030.81 1866.15 Q2028.64 1866.15 2026.37 1865.78 Q2024.12 1865.41 2021.71 1864.67 L2021.71 1859.97 Q2023.8 1861.11 2026.02 1861.66 Q2028.24 1862.22 2030.72 1862.22 Q2034.72 1862.22 2037.06 1860.11 Q2039.4 1858.01 2039.4 1854.4 Q2039.4 1850.78 2037.06 1848.68 Q2034.72 1846.57 2030.72 1846.57 Q2028.84 1846.57 2026.97 1846.99 Q2025.12 1847.4 2023.17 1848.28 L2023.17 1830.92 Z" fill="#000000" fill-rule="evenodd" fill-opacity="1" /><path clip-path="url(#clip070)" d="M2523.64 1861.55 L2531.28 1861.55 L2531.28 1835.18 L2522.97 1836.85 L2522.97 1832.59 L2531.23 1830.92 L2535.91 1830.92 L2535.91 1861.55 L2543.55 1861.55 L2543.55 1865.48 L2523.64 1865.48 L2523.64 1861.55 Z" fill="#000000" fill-rule="evenodd" fill-opacity="1" /><path clip-path="url(#clip070)" d="M2552.99 1859.6 L2557.88 1859.6 L2557.88 1865.48 L2552.99 1865.48 L2552.99 1859.6 Z" fill="#000000" fill-rule="evenodd" fill-opacity="1" /><path clip-path="url(#clip070)" d="M2578.06 1834 Q2574.45 1834 2572.62 1837.57 Q2570.82 1841.11 2570.82 1848.24 Q2570.82 1855.34 2572.62 1858.91 Q2574.45 1862.45 2578.06 1862.45 Q2581.7 1862.45 2583.5 1858.91 Q2585.33 1855.34 2585.33 1848.24 Q2585.33 1841.11 2583.5 1837.57 Q2581.7 1834 2578.06 1834 M2578.06 1830.3 Q2583.87 1830.3 2586.93 1834.9 Q2590.01 1839.49 2590.01 1848.24 Q2590.01 1856.96 2586.93 1861.57 Q2583.87 1866.15 2578.06 1866.15 Q2572.25 1866.15 2569.17 1861.57 Q2566.12 1856.96 2566.12 1848.24 Q2566.12 1839.49 2569.17 1834.9 Q2572.25 1830.3 2578.06 1830.3 Z" fill="#000000" fill-rule="evenodd" fill-opacity="1" /><path clip-path="url(#clip070)" d="M2608.22 1834 Q2604.61 1834 2602.78 1837.57 Q2600.98 1841.11 2600.98 1848.24 Q2600.98 1855.34 2602.78 1858.91 Q2604.61 1862.45 2608.22 1862.45 Q2611.86 1862.45 2613.66 1858.91 Q2615.49 1855.34 2615.49 1848.24 Q2615.49 1841.11 2613.66 1837.57 Q2611.86 1834 2608.22 1834 M2608.22 1830.3 Q2614.03 1830.3 2617.09 1834.9 Q2620.17 1839.49 2620.17 1848.24 Q2620.17 1856.96 2617.09 1861.57 Q2614.03 1866.15 2608.22 1866.15 Q2602.41 1866.15 2599.34 1861.57 Q2596.28 1856.96 2596.28 1848.24 Q2596.28 1839.49 2599.34 1834.9 Q2602.41 1830.3 2608.22 1830.3 Z" fill="#000000" fill-rule="evenodd" fill-opacity="1" /><polyline clip-path="url(#clip072)" style="stroke:#000000; stroke-linecap:butt; stroke-linejoin:round; stroke-width:2; stroke-opacity:0.1; fill:none" points="
  195.821,1509.33 2640.76,1509.33 
  "/>
<polyline clip-path="url(#clip072)" style="stroke:#000000; stroke-linecap:butt; stroke-linejoin:round; stroke-width:2; stroke-opacity:0.1; fill:none" points="
  195.821,1038.51 2640.76,1038.51 
  "/>
<polyline clip-path="url(#clip072)" style="stroke:#000000; stroke-linecap:butt; stroke-linejoin:round; stroke-width:2; stroke-opacity:0.1; fill:none" points="
  195.821,567.69 2640.76,567.69 
  "/>
<polyline clip-path="url(#clip072)" style="stroke:#000000; stroke-linecap:butt; stroke-linejoin:round; stroke-width:2; stroke-opacity:0.1; fill:none" points="
  195.821,96.8683 2640.76,96.8683 
  "/>
<polyline clip-path="url(#clip070)" style="stroke:#000000; stroke-linecap:butt; stroke-linejoin:round; stroke-width:4; stroke-opacity:1; fill:none" points="
  195.821,1800.78 195.821,47.2441 
  "/>
<polyline clip-path="url(#clip070)" style="stroke:#000000; stroke-linecap:butt; stroke-linejoin:round; stroke-width:4; stroke-opacity:1; fill:none" points="
  195.821,1509.33 214.718,1509.33 
  "/>
<polyline clip-path="url(#clip070)" style="stroke:#000000; stroke-linecap:butt; stroke-linejoin:round; stroke-width:4; stroke-opacity:1; fill:none" points="
  195.821,1038.51 214.718,1038.51 
  "/>
<polyline clip-path="url(#clip070)" style="stroke:#000000; stroke-linecap:butt; stroke-linejoin:round; stroke-width:4; stroke-opacity:1; fill:none" points="
  195.821,567.69 214.718,567.69 
  "/>
<polyline clip-path="url(#clip070)" style="stroke:#000000; stroke-linecap:butt; stroke-linejoin:round; stroke-width:4; stroke-opacity:1; fill:none" points="
  195.821,96.8683 214.718,96.8683 
  "/>
<path clip-path="url(#clip070)" d="M49.5521 1509.79 L79.2279 1509.79 L79.2279 1513.72 L49.5521 1513.72 L49.5521 1509.79 Z" fill="#000000" fill-rule="evenodd" fill-opacity="1" /><path clip-path="url(#clip070)" d="M99.3204 1495.13 Q95.7093 1495.13 93.8806 1498.7 Q92.075 1502.24 92.075 1509.37 Q92.075 1516.48 93.8806 1520.04 Q95.7093 1523.58 99.3204 1523.58 Q102.955 1523.58 104.76 1520.04 Q106.589 1516.48 106.589 1509.37 Q106.589 1502.24 104.76 1498.7 Q102.955 1495.13 99.3204 1495.13 M99.3204 1491.43 Q105.131 1491.43 108.186 1496.04 Q111.265 1500.62 111.265 1509.37 Q111.265 1518.1 108.186 1522.7 Q105.131 1527.29 99.3204 1527.29 Q93.5102 1527.29 90.4315 1522.7 Q87.376 1518.1 87.376 1509.37 Q87.376 1500.62 90.4315 1496.04 Q93.5102 1491.43 99.3204 1491.43 Z" fill="#000000" fill-rule="evenodd" fill-opacity="1" /><path clip-path="url(#clip070)" d="M119.482 1520.73 L124.367 1520.73 L124.367 1526.61 L119.482 1526.61 L119.482 1520.73 Z" fill="#000000" fill-rule="evenodd" fill-opacity="1" /><path clip-path="url(#clip070)" d="M134.598 1492.05 L152.954 1492.05 L152.954 1495.99 L138.88 1495.99 L138.88 1504.46 Q139.899 1504.11 140.917 1503.95 Q141.936 1503.77 142.954 1503.77 Q148.741 1503.77 152.121 1506.94 Q155.501 1510.11 155.501 1515.53 Q155.501 1521.11 152.028 1524.21 Q148.556 1527.29 142.237 1527.29 Q140.061 1527.29 137.792 1526.92 Q135.547 1526.54 133.14 1525.8 L133.14 1521.11 Q135.223 1522.24 137.445 1522.79 Q139.667 1523.35 142.144 1523.35 Q146.149 1523.35 148.487 1521.24 Q150.825 1519.14 150.825 1515.53 Q150.825 1511.92 148.487 1509.81 Q146.149 1507.7 142.144 1507.7 Q140.269 1507.7 138.394 1508.12 Q136.542 1508.54 134.598 1509.42 L134.598 1492.05 Z" fill="#000000" fill-rule="evenodd" fill-opacity="1" /><path clip-path="url(#clip070)" d="M98.325 1024.31 Q94.7139 1024.31 92.8852 1027.88 Q91.0797 1031.42 91.0797 1038.55 Q91.0797 1045.65 92.8852 1049.22 Q94.7139 1052.76 98.325 1052.76 Q101.959 1052.76 103.765 1049.22 Q105.593 1045.65 105.593 1038.55 Q105.593 1031.42 103.765 1027.88 Q101.959 1024.31 98.325 1024.31 M98.325 1020.61 Q104.135 1020.61 107.191 1025.21 Q110.269 1029.8 110.269 1038.55 Q110.269 1047.27 107.191 1051.88 Q104.135 1056.46 98.325 1056.46 Q92.5149 1056.46 89.4362 1051.88 Q86.3806 1047.27 86.3806 1038.55 Q86.3806 1029.8 89.4362 1025.21 Q92.5149 1020.61 98.325 1020.61 Z" fill="#000000" fill-rule="evenodd" fill-opacity="1" /><path clip-path="url(#clip070)" d="M118.487 1049.91 L123.371 1049.91 L123.371 1055.79 L118.487 1055.79 L118.487 1049.91 Z" fill="#000000" fill-rule="evenodd" fill-opacity="1" /><path clip-path="url(#clip070)" d="M143.556 1024.31 Q139.945 1024.31 138.116 1027.88 Q136.311 1031.42 136.311 1038.55 Q136.311 1045.65 138.116 1049.22 Q139.945 1052.76 143.556 1052.76 Q147.19 1052.76 148.996 1049.22 Q150.825 1045.65 150.825 1038.55 Q150.825 1031.42 148.996 1027.88 Q147.19 1024.31 143.556 1024.31 M143.556 1020.61 Q149.366 1020.61 152.422 1025.21 Q155.501 1029.8 155.501 1038.55 Q155.501 1047.27 152.422 1051.88 Q149.366 1056.46 143.556 1056.46 Q137.746 1056.46 134.667 1051.88 Q131.612 1047.27 131.612 1038.55 Q131.612 1029.8 134.667 1025.21 Q137.746 1020.61 143.556 1020.61 Z" fill="#000000" fill-rule="evenodd" fill-opacity="1" /><path clip-path="url(#clip070)" d="M99.3204 553.489 Q95.7093 553.489 93.8806 557.054 Q92.075 560.595 92.075 567.725 Q92.075 574.832 93.8806 578.396 Q95.7093 581.938 99.3204 581.938 Q102.955 581.938 104.76 578.396 Q106.589 574.832 106.589 567.725 Q106.589 560.595 104.76 557.054 Q102.955 553.489 99.3204 553.489 M99.3204 549.785 Q105.131 549.785 108.186 554.392 Q111.265 558.975 111.265 567.725 Q111.265 576.452 108.186 581.058 Q105.131 585.642 99.3204 585.642 Q93.5102 585.642 90.4315 581.058 Q87.376 576.452 87.376 567.725 Q87.376 558.975 90.4315 554.392 Q93.5102 549.785 99.3204 549.785 Z" fill="#000000" fill-rule="evenodd" fill-opacity="1" /><path clip-path="url(#clip070)" d="M119.482 579.091 L124.367 579.091 L124.367 584.97 L119.482 584.97 L119.482 579.091 Z" fill="#000000" fill-rule="evenodd" fill-opacity="1" /><path clip-path="url(#clip070)" d="M134.598 550.41 L152.954 550.41 L152.954 554.346 L138.88 554.346 L138.88 562.818 Q139.899 562.47 140.917 562.308 Q141.936 562.123 142.954 562.123 Q148.741 562.123 152.121 565.295 Q155.501 568.466 155.501 573.882 Q155.501 579.461 152.028 582.563 Q148.556 585.642 142.237 585.642 Q140.061 585.642 137.792 585.271 Q135.547 584.901 133.14 584.16 L133.14 579.461 Q135.223 580.595 137.445 581.151 Q139.667 581.706 142.144 581.706 Q146.149 581.706 148.487 579.6 Q150.825 577.494 150.825 573.882 Q150.825 570.271 148.487 568.165 Q146.149 566.058 142.144 566.058 Q140.269 566.058 138.394 566.475 Q136.542 566.892 134.598 567.771 L134.598 550.41 Z" fill="#000000" fill-rule="evenodd" fill-opacity="1" /><path clip-path="url(#clip070)" d="M89.1352 110.213 L96.7741 110.213 L96.7741 83.8476 L88.464 85.5142 L88.464 81.255 L96.7278 79.5883 L101.404 79.5883 L101.404 110.213 L109.043 110.213 L109.043 114.148 L89.1352 114.148 L89.1352 110.213 Z" fill="#000000" fill-rule="evenodd" fill-opacity="1" /><path clip-path="url(#clip070)" d="M118.487 108.269 L123.371 108.269 L123.371 114.148 L118.487 114.148 L118.487 108.269 Z" fill="#000000" fill-rule="evenodd" fill-opacity="1" /><path clip-path="url(#clip070)" d="M143.556 82.667 Q139.945 82.667 138.116 86.2318 Q136.311 89.7735 136.311 96.9031 Q136.311 104.009 138.116 107.574 Q139.945 111.116 143.556 111.116 Q147.19 111.116 148.996 107.574 Q150.825 104.009 150.825 96.9031 Q150.825 89.7735 148.996 86.2318 Q147.19 82.667 143.556 82.667 M143.556 78.9633 Q149.366 78.9633 152.422 83.5698 Q155.501 88.1531 155.501 96.9031 Q155.501 105.63 152.422 110.236 Q149.366 114.82 143.556 114.82 Q137.746 114.82 134.667 110.236 Q131.612 105.63 131.612 96.9031 Q131.612 88.1531 134.667 83.5698 Q137.746 78.9633 143.556 78.9633 Z" fill="#000000" fill-rule="evenodd" fill-opacity="1" /><polyline clip-path="url(#clip072)" style="stroke:#009af9; stroke-linecap:butt; stroke-linejoin:round; stroke-width:4; stroke-opacity:1; fill:none" points="
  265.017,1038.51 288.198,1019.59 311.377,1000.67 334.551,981.764 357.718,962.884 380.875,944.034 404.021,925.222 427.153,906.456 450.269,887.744 473.365,869.092 
  496.441,850.509 519.494,832.002 542.52,813.578 565.519,795.245 588.487,777.011 611.423,758.882 634.323,740.866 657.187,722.97 680.011,705.202 702.792,687.568 
  725.53,670.076 748.221,652.733 770.863,635.546 793.454,618.522 815.992,601.667 838.474,584.989 860.899,568.494 883.263,552.189 905.564,536.081 927.801,520.175 
  949.971,504.479 972.072,488.999 994.101,473.741 1016.06,458.711 1037.94,443.915 1059.74,429.359 1081.46,415.049 1103.1,400.992 1124.65,387.192 1146.12,373.655 
  1167.5,360.386 1188.79,347.392 1209.98,334.677 1231.08,322.246 1252.08,310.105 1272.98,298.258 1293.78,286.71 1314.48,275.465 1335.07,264.529 1355.55,253.906 
  1375.92,243.6 1396.18,233.614 1416.32,223.954 1436.35,214.624 1456.26,205.626 1476.05,196.964 1495.72,188.643 1515.26,180.664 1534.68,173.033 1553.97,165.751 
  1573.13,158.822 1592.15,152.248 1611.05,146.032 1629.8,140.177 1648.42,134.685 1666.9,129.557 1685.24,124.798 1703.43,120.407 1721.48,116.387 1739.38,112.74 
  1757.14,109.467 1774.74,106.569 1792.19,104.047 1809.48,101.903 1826.62,100.138 1843.6,98.7518 1860.42,97.7452 1877.08,97.1186 1893.58,96.8724 1909.92,97.0067 
  1926.08,97.5213 1942.08,98.4161 1957.91,99.6908 1973.57,101.345 1989.06,103.377 2004.37,105.788 2019.51,108.575 2034.47,111.738 2049.25,115.275 2063.85,119.185 
  2078.27,123.467 2092.5,128.119 2106.55,133.138 2120.42,138.523 2134.1,144.272 2147.59,150.382 2160.89,156.85 2173.99,163.675 2186.91,170.854 2199.63,178.383 
  2212.15,186.259 2224.48,194.48 2236.61,203.042 2248.54,211.941 2260.27,221.175 2271.8,230.738 2283.13,240.628 2294.25,250.84 2305.17,261.371 2315.88,272.215 
  2326.39,283.369 2336.68,294.828 2346.77,306.588 2356.65,318.643 2366.31,330.99 2375.76,343.622 2385,356.534 2394.03,369.723 2402.84,383.181 2411.44,396.904 
  2419.82,410.887 2427.98,425.123 2435.92,439.607 2443.64,454.332 2451.14,469.294 2458.43,484.486 2465.49,499.902 2472.32,515.535 2478.94,531.38 2485.33,547.429 
  2491.5,563.677 2497.44,580.117 2503.16,596.741 2508.65,613.545 2513.91,630.52 2518.95,647.66 2523.76,664.958 2528.34,682.406 2532.69,699.999 2536.82,717.728 
  2540.71,735.587 2544.37,753.569 2547.81,771.665 2551.01,789.869 2553.98,808.174 2556.73,826.572 2559.24,845.055 2561.51,863.617 2563.56,882.249 2565.37,900.945 
  2566.96,919.696 2568.31,938.495 2569.42,957.334 2570.31,976.206 2570.96,995.104 2571.37,1014.02 2571.56,1032.94 2571.51,1051.87 2571.23,1070.79 2570.72,1089.7 
  2569.97,1108.59 2568.99,1127.45 2567.78,1146.27 2566.33,1165.05 2564.66,1183.78 2562.75,1202.45 2560.6,1221.06 2558.23,1239.59 2555.63,1258.03 2552.79,1276.4 
  2549.72,1294.66 2546.42,1312.82 2542.89,1330.87 2539.14,1348.8 2535.15,1366.61 2530.93,1384.28 2526.48,1401.82 2521.81,1419.2 2516.9,1436.44 2511.77,1453.51 
  2506.42,1470.42 2500.83,1487.15 2495.02,1503.7 2488.99,1520.06 2482.73,1536.22 2476.24,1552.19 2469.54,1567.95 2462.61,1583.49 2455.46,1598.82 2448.08,1613.92 
  2440.49,1628.78 2432.68,1643.41 2424.64,1657.79 2416.39,1671.92 2407.93,1685.8 2399.24,1699.41 2390.34,1712.76 2381.23,1725.84 2371.9,1738.64 2362.36,1751.15 
  
  "/>
<path clip-path="url(#clip070)" d="
M2235.17 209.375 L2559.26 209.375 L2559.26 105.695 L2235.17 105.695  Z
  " fill="#ffffff" fill-rule="evenodd" fill-opacity="1"/>
<polyline clip-path="url(#clip070)" style="stroke:#000000; stroke-linecap:butt; stroke-linejoin:round; stroke-width:4; stroke-opacity:1; fill:none" points="
  2235.17,209.375 2559.26,209.375 2559.26,105.695 2235.17,105.695 2235.17,209.375 
  "/>
<polyline clip-path="url(#clip070)" style="stroke:#009af9; stroke-linecap:butt; stroke-linejoin:round; stroke-width:4; stroke-opacity:1; fill:none" points="
  2262.33,157.535 2425.33,157.535 
  "/>
<path clip-path="url(#clip070)" d="M2466.34 177.223 Q2464.53 181.852 2462.82 183.264 Q2461.11 184.676 2458.24 184.676 L2454.83 184.676 L2454.83 181.112 L2457.33 181.112 Q2459.09 181.112 2460.07 180.278 Q2461.04 179.445 2462.22 176.343 L2462.98 174.399 L2452.5 148.889 L2457.01 148.889 L2465.11 169.167 L2473.21 148.889 L2477.73 148.889 L2466.34 177.223 Z" fill="#000000" fill-rule="evenodd" fill-opacity="1" /><path clip-path="url(#clip070)" d="M2485.02 170.88 L2492.66 170.88 L2492.66 144.515 L2484.35 146.181 L2484.35 141.922 L2492.61 140.255 L2497.29 140.255 L2497.29 170.88 L2504.93 170.88 L2504.93 174.815 L2485.02 174.815 L2485.02 170.88 Z" fill="#000000" fill-rule="evenodd" fill-opacity="1" /></svg>
